<?xml version="1.0" encoding="UTF-8"?>
<svg id="Layer_1" data-name="Layer 1" xmlns="http://www.w3.org/2000/svg" viewBox="0 0 181.14 62.45">
  <defs>
    <style>
      .cls-1 {
        fill: #fff;
      }

      .cls-2 {
        stroke: #fff;
        stroke-miterlimit: 10;
        stroke-width: 3.91px;
      }

      .cls-2, .cls-3 {
        fill: #1a1a1a;
      }

      .cls-4 {
        fill: #e25e3b;
      }
    </style>
  </defs>
  <g>
    <path class="cls-3" d="M64.21,28.95l.13.31h.09s.13-.31.13-.31l2.41-10.47h4.72s-4.92,18.8-4.92,18.8v13.95s-4.82,0-4.82,0v-13.95s-4.88-18.81-4.88-18.81h4.72s2.4,10.48,2.4,10.48Z"/>
    <path class="cls-3" d="M73.77,51.24l.02-32.75h4.23c2.85,0,5.08.54,6.55,1.92,1.47,1.38,2.23,3.52,2.22,6.77,0,1.56-.14,2.72-.63,3.79-.49,1.07-1.25,1.96-2.36,2.98,1.2.67,2.09,1.92,2.8,4.01.36,1.02.53,2.36.53,4.01,0,2.45-.45,4.63-1.56,6.33-1.12,1.69-3.03,2.8-5.88,2.94h-5.93ZM78.59,46.47c.4,0,1.34.09,2.14-.49s1.43-1.87,1.43-4.54-.62-3.97-1.42-4.55c-.8-.58-1.74-.49-2.14-.49v10.07ZM78.6,31.99c.4,0,1.34.05,2.14-.49.8-.53,1.43-1.6,1.43-3.88,0-2.27-.62-3.34-1.42-3.88-.8-.54-1.74-.49-2.14-.49v8.73Z"/>
    <path class="cls-3" d="M90.01,18.5h11.01s0,4.95,0,4.95h-6.19s0,8.59,0,8.59h4.46s0,5.26,0,5.26h-4.46s0,9,0,9h6.19s0,4.95,0,4.95h-11.01s.02-32.76.02-32.76Z"/>
    <path class="cls-3" d="M112.27,51.26l-2.48-13.81h-1.29s-.01,13.81-.01,13.81h-4.81s.02-32.75.02-32.75h4.81c5.75,0,8.2,3.26,8.19,9.46,0,3.25-.85,6.19-2.68,7.44l3.06,15.86h-4.81ZM108.5,32.99c.67,0,1.56-.09,2.27-.71.71-.62,1.29-1.83,1.29-4.14,0-2.32-.58-3.56-1.29-4.19-.71-.62-1.6-.67-2.27-.67v9.71Z"/>
    <path class="cls-3" d="M119.76,51.27l.02-32.75h3.79c4.46,0,6.86.9,8.15,3.4,1.25,2.5,1.42,6.6,1.42,13.01,0,6.42-.19,10.47-1.44,12.96-1.29,2.49-3.7,3.38-8.16,3.38h-3.79ZM124.57,46.46c1.65,0,2.58-.18,3.08-1.78.22-.76.4-1.92.45-3.48.05-1.56.05-3.65.05-6.33,0-2.67,0-4.77-.04-6.33-.04-1.51-.22-2.67-.44-3.48-.49-1.56-1.42-1.74-3.07-1.74l-.02,23.12Z"/>
    <path class="cls-3" d="M149.14,18.54l-.02,26.02c-.05,1.34-.31,2.54-.8,3.56-.4.89-1.03,1.74-1.92,2.4-.89.71-2.09,1.11-3.7,1.11s-2.85-.4-3.74-1.12c-.89-.67-1.47-1.52-1.87-2.41-.49-1.03-.76-2.23-.8-3.57l.02-26.02h4.81s-.02,26.02-.02,26.02c0,.94.22,1.56.67,2.05.22.22.54.36.94.36.85,0,1.25-.53,1.43-1.2.13-.31.18-.71.18-1.2l.02-26.02h4.81Z"/>
    <path class="cls-3" d="M152.64,51.29l.02-32.75h3.79c4.46,0,6.86.9,8.15,3.39,1.25,2.5,1.42,6.6,1.42,13.01,0,6.42-.19,10.47-1.44,12.96-1.29,2.49-3.7,3.38-8.16,3.38h-3.79ZM157.45,46.48c1.65,0,2.58-.18,3.08-1.78.22-.76.4-1.92.45-3.47.05-1.56.05-3.65.05-6.33,0-2.67,0-4.77-.04-6.33-.04-1.51-.22-2.67-.44-3.48-.49-1.56-1.42-1.74-3.07-1.74l-.02,23.12Z"/>
    <path class="cls-3" d="M169.24,18.56h11.01s0,4.95,0,4.95h-6.19s0,8.59,0,8.59h4.46s0,5.26,0,5.26h-4.46s0,9,0,9h6.19s0,4.95,0,4.95h-11.01s.02-32.76.02-32.76Z"/>
  </g>
  <circle class="cls-3" cx="32.86" cy="35.85" r="23.24"/>
  <path class="cls-2" d="M40.64,31.29c0-2.74,1.35-5.16,3.42-6.63-2.85-2.82-6.76-4.57-11.08-4.57-8.69,0-15.77,7.06-15.77,15.75s7.06,15.77,15.75,15.77c7.47,0,13.75-5.21,15.37-12.2-4.28-.2-7.69-3.76-7.69-8.12Z"/>
  <circle class="cls-4" cx="29.23" cy="36.81" r="5.2"/>
  <circle class="cls-1" cx="29.27" cy="37.07" r="2.22"/>
  <rect class="cls-4" x="7.07" y="14.5" width="5.75" height="5.75"/>
  <rect class="cls-4" x="7.19" y="4.79" width="4.31" height="4.31"/>
  <rect class="cls-3" y="9.83" width="4.79" height="4.79"/>
  <rect class="cls-3" x="1.2" width="4.07" height="4.07"/>
</svg>